<mxfile host="app.diagrams.net" modified="2021-10-20T10:25:24.807Z" agent="5.0 (Windows NT 10.0; Win64; x64) AppleWebKit/537.36 (KHTML, like Gecko) Chrome/94.0.4606.81 Safari/537.36 Edg/94.0.992.50" etag="iNfN4QiGet9A3juoQTs9" version="15.5.6" type="github">
  <diagram id="bUFOwKWZn6E3vbHECjQT" name="Page-1">
    <mxGraphModel dx="868" dy="482" grid="1" gridSize="10" guides="1" tooltips="1" connect="1" arrows="1" fold="1" page="1" pageScale="1" pageWidth="827" pageHeight="1169" math="0" shadow="0">
      <root>
        <mxCell id="0" />
        <mxCell id="1" parent="0" />
        <mxCell id="AyGmowuuLGJWQ7Xyzo-1-3" value="eth2" style="edgeStyle=orthogonalEdgeStyle;rounded=0;orthogonalLoop=1;jettySize=auto;html=1;" edge="1" parent="1" source="AyGmowuuLGJWQ7Xyzo-1-1">
          <mxGeometry relative="1" as="geometry">
            <mxPoint x="440" y="375" as="targetPoint" />
            <Array as="points">
              <mxPoint x="340" y="375" />
            </Array>
          </mxGeometry>
        </mxCell>
        <mxCell id="AyGmowuuLGJWQ7Xyzo-1-6" value="eth1" style="edgeStyle=orthogonalEdgeStyle;rounded=0;orthogonalLoop=1;jettySize=auto;html=1;" edge="1" parent="1" source="AyGmowuuLGJWQ7Xyzo-1-1">
          <mxGeometry relative="1" as="geometry">
            <mxPoint x="450" y="147" as="targetPoint" />
            <Array as="points">
              <mxPoint x="340" y="147" />
            </Array>
          </mxGeometry>
        </mxCell>
        <mxCell id="AyGmowuuLGJWQ7Xyzo-1-1" value="" style="fontColor=#0066CC;verticalAlign=top;verticalLabelPosition=bottom;labelPosition=center;align=center;html=1;outlineConnect=0;fillColor=#CCCCCC;strokeColor=#6881B3;gradientColor=none;gradientDirection=north;strokeWidth=2;shape=mxgraph.networks.virtual_pc;" vertex="1" parent="1">
          <mxGeometry x="250" y="250" width="115" height="85" as="geometry" />
        </mxCell>
        <mxCell id="AyGmowuuLGJWQ7Xyzo-1-9" style="edgeStyle=orthogonalEdgeStyle;rounded=0;orthogonalLoop=1;jettySize=auto;html=1;" edge="1" parent="1" source="AyGmowuuLGJWQ7Xyzo-1-7" target="AyGmowuuLGJWQ7Xyzo-1-8">
          <mxGeometry relative="1" as="geometry" />
        </mxCell>
        <mxCell id="AyGmowuuLGJWQ7Xyzo-1-7" value="交换机" style="points=[];aspect=fixed;html=1;align=center;shadow=0;dashed=0;image;image=img/lib/allied_telesis/security/Router_VPN.svg;" vertex="1" parent="1">
          <mxGeometry x="460.1" y="130" width="55.800000000000004" height="39.6" as="geometry" />
        </mxCell>
        <mxCell id="AyGmowuuLGJWQ7Xyzo-1-8" value="上级设备lan口" style="sketch=0;pointerEvents=1;shadow=0;dashed=0;html=1;strokeColor=none;fillColor=#434445;aspect=fixed;labelPosition=center;verticalLabelPosition=bottom;verticalAlign=top;align=center;outlineConnect=0;shape=mxgraph.vvd.ethernet_port;" vertex="1" parent="1">
          <mxGeometry x="648" y="124.8" width="50" height="50" as="geometry" />
        </mxCell>
        <mxCell id="AyGmowuuLGJWQ7Xyzo-1-11" style="edgeStyle=orthogonalEdgeStyle;rounded=0;orthogonalLoop=1;jettySize=auto;html=1;" edge="1" parent="1" source="AyGmowuuLGJWQ7Xyzo-1-10">
          <mxGeometry relative="1" as="geometry">
            <mxPoint x="638" y="370" as="targetPoint" />
            <Array as="points">
              <mxPoint x="560" y="370" />
              <mxPoint x="560" y="370" />
            </Array>
          </mxGeometry>
        </mxCell>
        <mxCell id="AyGmowuuLGJWQ7Xyzo-1-10" value="路由器" style="image;html=1;image=img/lib/clip_art/networking/Wireless_Router_128x128.png" vertex="1" parent="1">
          <mxGeometry x="448" y="320" width="80" height="80" as="geometry" />
        </mxCell>
        <mxCell id="AyGmowuuLGJWQ7Xyzo-1-14" style="edgeStyle=orthogonalEdgeStyle;rounded=0;orthogonalLoop=1;jettySize=auto;html=1;" edge="1" parent="1" target="AyGmowuuLGJWQ7Xyzo-1-13">
          <mxGeometry relative="1" as="geometry">
            <mxPoint x="678" y="340" as="sourcePoint" />
            <Array as="points">
              <mxPoint x="678" y="330" />
              <mxPoint x="678" y="330" />
            </Array>
          </mxGeometry>
        </mxCell>
        <mxCell id="AyGmowuuLGJWQ7Xyzo-1-12" value="网关" style="image;html=1;image=img/lib/clip_art/networking/Router_128x128.png" vertex="1" parent="1">
          <mxGeometry x="638" y="330" width="80" height="80" as="geometry" />
        </mxCell>
        <mxCell id="AyGmowuuLGJWQ7Xyzo-1-13" value="上级设备lan口" style="sketch=0;pointerEvents=1;shadow=0;dashed=0;html=1;strokeColor=none;fillColor=#434445;aspect=fixed;labelPosition=center;verticalLabelPosition=bottom;verticalAlign=top;align=center;outlineConnect=0;shape=mxgraph.vvd.ethernet_port;" vertex="1" parent="1">
          <mxGeometry x="653" y="240" width="50" height="50" as="geometry" />
        </mxCell>
      </root>
    </mxGraphModel>
  </diagram>
</mxfile>
